/* XPM */
static char *robofei[] = {
/* columns rows colors chars-per-pixel */
"180 92 5 1 ",
"  c #00157B",
". c #0C6FAE",
"X c #78D0EE",
"o c #78D1EF",
"O c None",
/* pixels */
"OOOOOOOOOOOOOOOOOOOOO                           OOOOOOOOOOOOOOOOOOOOOOOOOOOOOOOOOOOOOOOOOOOOOOOOOOOOOOOOOOOOOOOOOOOOOOOOOOO                          OOOOOOOOOOOOOOOOOOOOOOOOOOOOOOO",
"OOOOOOOOOOOOOOOOOOOO                             OOOOOOOOOOOOOOOOOOOOOOOOOOOOOOOOOOOOOOOOOOOOOOOOOOOOOOOOOOOOOOOOOOOOOOOOO                            OOOOOOOOOOOOOOOOOOOOOOOOOOOOOO",
"OOOOOOOOOOOOOOOOOOO   OOOOOOOOOOOOOOOOOOOOOOOOO   OOOOOOOOOOOOOOOOOOOOOOOOOOOOOOOOOOOOOOOOOOOOOOOOOOOOOOOOOOOOOOOOOOOOOOO   OOOOOOOOOOOOOOOOOOOOOOOO   OOOOOOOOOOOOOOOOOOOOOOOOOOOOO",
"OOOOOOOOOOOOOOOOOO   OOOOOOOOOOOOOOOOOOOOOOOOOOO   OOOOOOOOOOOOOOOOOOOOOOOOOOOOOOOOOOOOOOOOOOOOOOOOOOOOOOOOOOOOOOOOOOOOO   OOOOOOOOOOOOOOOOOOOOOOOOOO   OOOOOOOOOOOOOOOOOOOOOOOOOOOO",
"OOOOOOOOOOOOOOOOO   OOOOOOOOOOOOOOOOOOOOOOOOOOOOO   OOOOOOOOOOOOOOOOOOOOOOOOOOOOOOOOOOOOOOOOOOOOOOOOOOOOOOOOOOOOOOOOOOO   OOOOOOOOOOOOOOOOOOOOOOOOOOOO  OOOOOOOOOOOOOOOOOOOOOOOOOOOO",
"OOOOOOOOOOOOOOOO   OOOOOOOOOOOOOOOOOOOOOOOOOOOOOOO   OOOOOOOOOOOOOOOOOOOOOOOOOOOOOOOOOOOOOOOOOOOOOOOOOOOOOOOOOOOOOOOOO   OOOOOOOOOOOOOOOOOOOOOOOOOOOOO  OOOOOOOOOOOOOOOOOOOOOOOOOOOO",
"OOOOOOOOOOOOOOOO  OOOOOOOOOOOOOOOOOOOOOOOOOOOOOOOOOO  OOOOOOOOOOOOOOOOOOOOOOOOOOOOOOOOOOOOOOOOOOOOOOOOOOOOOOOOOOOOOOO   OOOOOO....................OOOO  OOOOOOOOOOOOOOOOOOOOOOOOOOOO",
"OOOOOOOOOOOOOOO  OOOOOOO.....................OOOOOOO  OOOOOOOOOOOOOOOOOOOOOOOOOOOOOOOOOOOOOOOOOOOOOOOOOOOOOOOOOOOOOOO  OOOOOO.....................OOOO  OOOOOOOOOOOOOOOOOOOOOOOOOOOO",
"OOOOOOOOOOOOOO   OOOOOO.......................OOOOOO  OOOOOOOOOOOOOOOOOOOOOOOOOOOOOOOOOOOOOOOOOOOOOOOOOOOOOOOOOOOOOO  OOOOOO......................OOOO  OOOOOOOOOOOOOOOOOOOOOOOOOOOO",
"OOOOOOOOOOOOOO  OOOOOO.........................OOOOO  OOOOOOOOOOOOOOOOOOOOOOOOOOOOOOOOOOOOOOOOOOOOOOOOOOOOOOOOOOOOO   OOOOOO.....................OOOOO  OOOOOOOOOOOOOOOOOOOOOOOOOOOO",
"OOOOOOOOOOOOO  OOOOOOO.........................OOOOO  OOOOOOOOOOOOOOOOOOOOOOOOOOOOOOOOOOOOOOOOOOOOOOOOOOOOOOOOOOOOO  OOOOOO......................OOOOO  OOOOOOOOOOOOOOOOOOOOOOOOOOOO",
"OOOOOOOOOOOOO  OOOOOO..........................OOOOO  OOOOOOOOOOOOOOOOOOOOOOOOOOOOOOOOOOOOOOOOOOOOOOOOOOOOOOOOOOOO   OOOOO.......................OOOOO  OOOOOOOOOOOOOOOOOOOOOOOOOOOO",
"OOOOOOOOOOOOO  OOOOO...........................OOOOO  OOOOOOOOOOOOOOOOOOOOOOOOOOOOOOOOOOOOOOOOOOOOOOOOOOOOOOOOOOOO  OOOOOO.......................OOOOO  OOOOOOOOOOOOOOOOOOOOOOOOOOOO",
"OOOOOOOOOOOOO  OOOOO...........................OOOOO  OOOOOOOOOOOOOOOOOOOOOOOOOOOOOOOOOOOOOOOOOOOOOOOOOOOOOOOOOOOO  OOOOO.......................OOOOOO  OOOOOOOOOOOOOOOOOOOOOOOOOOOO",
"OOOOOOOOOOOOO  OOOO............................OOOOO  OOOOOOOOOOOOOOOOOOOOOOOOOOOOOOOOOOOOOOOOOOOOOOOOOOOOOOOOOOOO OOOOO........................OOOOOO  OOOOOOOOOOOOOOOOOOOOOOOOOOOO",
"OOOOOOOOOOOOO  OOOO............................OOOOO  OOOOOOOOOOOOOOOOOOOOOOOOOOOOOOOOOOOOOOOOOOOOOOOOOOOOOOOOOOO  OOOOO........................OOOOO  OOOOOOOOOOOOOOOOOOOOOOOOOOOOO",
"OOOOOOOOOOOOO  OOOOOOOO..........OOOO.........OOOOOO                 O                       OOOO                  OOOOOOOOOO.........OOOOOOOOOOOOOOO                           OOOO",
"OOOOOOOOOOOOO  OOOOOOOO..........OOOO.........OOOOOO                                           O                   OOOOOOOOO...........OOOOOOOOOOOOOO                            OOO",
"OOOOOOOOOOOOO  OOOOOOOO..........OOO..........OOOOOOOOOOOOOOOOOOOOOOO  OOOOOOOOOOOOOOOOOOOOOO     OOOOOOOOOOOOOOOOOOOOOOOOOO..........OOOOOOOOOOOOOOOOOOOOOOOOOOOOOOOOOOOOOOOOO   OO",
"OOOOOOOOOOOOOO  OOOOOO..........OOOO..........OOOOOOOOOOOOOOOOOOOOOOOOOOOOOOOOOOOOOOOOOOOOOOOO  OOOOOOOOOOOOOOOOOOOOOOOOOOOO..........OOOOOOOOOOOOOOOOOOOOOOOOOOOOOOOOOOOOOOOOOO   O",
"OOOOOOOOOOOOOO  OOOOOO..........OOOO.........OOOOOOOOOOOOOOOOOOOOOOOOOOOOOOOOOOOOOOOOOOOOOOOOOOOOOOOOOOOOOOOOOOOOOOOOOOOOOO...........OOOOOOOOOOOOOOOOOOOOOOOOOOOOOOOOOOOOOOOOOOO   ",
"OOOOOOOOOOOOOO  OOOOOO..........OOO..........OOOOOOOOOOOOOOOOOOOOOOOOOOOOOOOOOOOOOOOOOOOOOOOOOOOOOOOOOOOOOOOOOOOOOOOOOOOOOO...........OOOOOOOOOOOOOOOOOOOOOOOOOOOOOOOOOOOOOOOOOOOO  ",
"OOOOOOOOOOOOOO  OOOOOO..........OOO..........OOOOOOOOOOOOOOOOOOOOOOOOOOOOOOOOOOOOOOOOOOOOOOOOOOOOOOOOOOOOOOOOOOOOOOOOOOOOOO..........OOOOOOOOOOOOOOOOOOOOOOOOOOOOOOOOOOOOOOOOOOOOO  ",
"OOOOOOOOOOOOO  OOOOOO..........OOOO.........OOOOOO................OOOOOOO..................OOOOOOOOO................OOOOOO...........OOOOOOOOOOO.................OOO..........OOOO  ",
"OOOOOOOOOOOOO  OOOOOO..........OOOO.........OOOOO..................OOOOO....................OOOOOO...................OOOOO...........OOOOOOOOOOO................OOOO..........OOOO  ",
"OOOOOOOOOOOOO  OOOOOO..........OOO..........OOOO....................OOOO.....................OOOO.....................OOOO..........OOOOOOOOOOOO................OOO..........OOOOO  ",
"OOOOOOOOOOOO  OOOOOO..........OOOO..........OOO.....................OOOO.....................OOOO.....................OOOO..........OOOOOOOOOOO.................OOO..........OOOOO  ",
"OOOOOOOOOOOO  OOOOOO..........OOOO.........OOOO.....................OOOO.....................OOOO.....................OOO...........OOOOOOOOOOO.................OOO..........OOOOO  ",
"OOOOOOOOOOOO  OOOOOO..........OOOO.........OOO......................OOO......................OOO.....................OOOO..........OOOOOOOOOOOO................OOO..........OOOOOO  ",
"OOOOOOOOOOO  OOOOOOO..........OOO..........OOO.....................OOOO.........OOO.........OOOO.....................OOOO...........OOOOOOOOOO.................OOO..........OOOOOO  ",
"OOOOOOOOOOO  OOOOOO..........OOOO.........OOOO........OOOOO........OOOO........OOOO.........OOOO........OOOOO........OOO...................OOO.................OOO..........OOOOO  O",
"OOOOOOOOOOO  OOOOOO..........OOO..........OOOO........OOOOO........OOO.........OOOO.........OOOO.......OOOOOO........OOO..................OOOO..........OOOOOOOOOO..........OOOOO  O",
"OOOOOOOOOOO  OOOOOO.......................OOO........OOOOOO........OOO.........OOOO.........OOO........OOOOO........OOOO..................OOO..........OOOOOOOOOO..........OOOOOO  O",
"OOOOOOOOOO  OOOOOO.......................OOOO........OOOOO........OOOO........OOOO.........OOOO........OOOOO........OOO...................OOO..........OOOOOOOOOO..........OOOOO   O",
"OOOOOOOOOO  OOOOOO.......................OOOO........OOOOO........OOOO........OOOO.........OOOO........OOOOO........OOO...................OOO..........OOOOOOOOOO..........OOOOO  OO",
"OOOOOOOOOO  OOOOOO.......................OOO.........OOOOO........OOO.........OOOO.........OOO........OOOOOO.......OOOO..................OOOO.........OOOOOOOOOO..........OOOOOO  OO",
"OOOOOOOOO  OOOOOOO......................OOOO........OOOOOO.......OOOO........OOOOO.........OOO........OOOOO........OOOO..................OOO..........OOOOOOOOOO..........OOOOOO  OO",
"OOOOOOOOO  OOOOOO......................OOOOO........OOOOO........OOOO........OOOO.........OOOO........OOOOO........OOO...................OOO..........OOOOOOOOOO..........OOOOO  OOO",
"OOOOOOOOO  OOOOOO......................OOOOO........OOOOO........OOO.........OOOO.........OOO........OOOOOO........OOO..................OOOO................OOOO.........OOOOOO  OOO",
"OOOOOOOO   OOOOOO......................OOOO........OOOOO.........OOO.........OOO..........OOO........OOOOO........OOOO...........OOOOOOOOOO.................OOO..........OOOOOO  OOO",
"OOOOOOOO  OOOOOO.......................OOOO........OOOOO........OOOO.....................OOOO........OOOOO........OOO...........OOOOOOOOOOO................OOOO..........OOOOO  OOOO",
"OOOOOOOO  OOOOOO..........OOO..........OOOO........OOOOO........OOO......................OOOO........OOOOO........OOO...........OOOOOOOOOOO................OOOO..........OOOOO  OOOO",
"OOOOOOOO  OOOOOO..........OOO..........OOOO........OOOOO........OOO.....................OOOO........OOOOO........OOOO...........OOOOOOOOOO.................OOO..........OOOOOO  OOOO",
"OOOOOOO  OOOOOO...........OOO..........OOO........OOOOO........OOOO....................OOOOO........OOOOO........OOOO..........OOOOOOOOOOO.................OOO..........OOOOOO  OOOO",
"OOOOOOO  OOOOOO..........OOO...........OOO........OOOOO........OOOO....................OOOOO........OOOOO........OOO...........OOOOOOOOOOO.................OOO..........OOOOO  OOOOO",
"OOOOOOO  OOOOOO..........OOO..........OOOO........OOOOO........OOO..........OO.........OOOO........OOOOOO........OOO...........OOOOOOOOOOO................OOO..........OOOOOO  OOOOO",
"OOOOOO  OOOOOOO..........OOO..........OOO........OOOOO.........OOO.........OOOO........OOOO........OOOOO........OOO...........OOOOOOOOOOO.................OOO..........OOOOOO  OOOOO",
"OOOOOO  OOOOOO...........OO...........OOO........OOOOO........OOOO.........OOOO........OOOO........OOOOO........OOO...........OOOOOOOOOOO..........OOOOOOOOOO..........OOOOO  OOOOOO",
"OOOOOO  OOOOOO..........OOO..........OOOO........OOOOO........OOO.........OOOOO........OOOO........OOOOO........OOO...........OOOOOOOOOOO.........OOOOOOOOOOO..........OOOOO  OOOOOO",
"OOOOOO  OOOOOO..........OOO..........OOOO........OOOOO........OOO.........OOOO.........OOO........OOOOO........OOOO...........OOOOOOOOOO..........OOOOOOOOOO..........OOOOOO  OOOOOO",
"OOOOO  OOOOOO...........OOO..........OOO........OOOOO........OOOO.........OOOO.........OOO........OOOOO........OOO...........OOOOOOOOOOO..........OOOOOOOOOO..........OOOOOO  OOOOOO",
"OOOOO  OOOOOO..........OOO...........OOO........OOOOO........OOOO.........OOOO........OOOO........OOOOO........OOO...........OOOOOOOOOOO..........OOOOOOOOOO..........OOOOO  OOOOOOO",
"OOOOO  OOOOOO..........OOO..........OOOO........OOOOO........OOO.........OOOO.........OOO.........OOOOO........OOO...........OOOOOOOOOO..........OOOOOOOOOO..........OOOOOO  OOOOOOO",
"OOOO  OOOOOOO..........OOO..........OOO........OOOOO........OOOO.........OOOO.........OOO........OOOOO........OOO...........OOOOOOOOOOO..........OOOOOOOOOO..........OOOOOO  OOOOOOO",
"OOOO  OOOOOO..........OOO...........OOO........OOOOO........OOOO.........OOOO........OOOO........OOOOO........OOO...........OOOOOOOOOOO.................OOO..........OOOOO  OOOOOOOO",
"OOOO  OOOOOO..........OOO..........OOOO........OOOOO........OOO.........OOOO.........OOOO........OOOO.........OOO...........OOOOOOOOOO..................OOO..........OOOOO  OOOOOOOO",
"OOOO  OOOOOO..........OOO..........OOOO.....................OOO......................OOO......................OOO..........OOOOOOOOOOO..................OO..........OOOOOO  OOOOOOOO",
"OOO  OOOOOO...........OOO..........OOO.....................OOOO.....................OOOO.....................OOO...........OOOOOOOOOOO.................OOO..........OOOOO   OOOOOOOO",
"OOO  OOOOOO..........OOO..........OOOO.....................OOOO.....................OOOO.....................OOO...........OOOOOOOOOOO.................OOO..........OOOOO  OOOOOOOOO",
"OOO  OOOOOO..........OOO..........OOOO.....................OOO......................OOOO....................OOOO..........OOOOOOOOOOO.................OOO..........OOOOOO  OOOOOOOOO",
"OO  OOOOOOO..........OOO..........OOOO....................OOOO.....................OOOOO....................OOO...........OOOOOOOOOOO.................OOO..........OOOOOO   OOOOOOOO",
"OO  OOOOOO..........OOO...........OOOOO..................OOOOO.....................OOOOOO..................OOOO...........OOOOOOOOOOO.................OOO..........OOOOOOO  OOOOOOOO",
"OO  OOOOOO..........OOO..........OOOOOOO................OOOOO....................OOOOOOOOO................OOOOO...........OOOOOOOOOO.................OOO..........OOOOOOOOO  OOOOOOO",
"O  OOOOOOO..........OOOOOOOOOOOOOOOOOOOOOOOOOOOOOOOOOOOOOOOOOOOOOOOOOOOOOOOOOOOOOOOOOOOOOOOOOOOOOOOOOOOOOOOOOO...........OOOOOOOOOOOOOOOOOOOOOOOOOOOOOOOOOOOOOOOOOOOOOOOOOOO  OOOOOO",
"O  OOOOOO..........OOOOOOOOOOOOOOOOOOOOOOOOOOOOOOOOOOOOOOOOOOOOOOOOOOOOOOOOOOOOOOOOOOOOOOOOOOOOOOOOOOOOOOOOOOO...........OOOOOOOOOOOOOOOOOOOOOOOOOOOOOOOOOOOOOOOOOOOOOOOOOOOO  OOOOO",
"O  OOOOOO..........OOOOOOOOOOOOOOOOOOOOOOOOOOOOOOOOOOOOOOOOOOOOOOOOOOOOOOOOOOOOOOOOOOOOOOOOOOOOOOOOOOOOOOOOOOO...........OOOOOOOOOOOOOOOOOOOOOOOOOOOOOOOOOOOOOOOOOOOOOOOOOOOOO  OOOO",
"O  OOOOOO..........OOOOOOOOOOOOOOOOOOOOOOOOOOOOOOOOOOOOOOOOOOOOOOOOOOOOOOOOOOOOOOOOOOOOOOOOOOOOOOOOOOOOOOOOOOO..........OOOOOOOOOOOOOOOOOOOOOOOOOOOOOOOOOOOOOOOOOOOOOOOOOOOOOOO  OOO",
"  OOOOOO..........OOOOOOOOOOOOOOOOO    OOOOOOOOOOOOOOOOOO    OOOOOOOOOOOOOOOOOOOOO      OOOOOOOOOOOOOOOOOOOOO...........OOOOOOOOOOOOOOOOOOOOOOOOOOOOOOOOOOOOOOOOOOOOOOOOOOOOOOOO  OO",
"  OOOOOO..........OOOOOO                                                                                OOOOO...........OOOOOOOOOOOOOOOOOOOOOOOOOOOOOOOOOOOOOOOOOOOOOOOOOOOOOOOOO  O",
"  OOOOOO..........OOOOOO           OOO                    OO                       OOOO                 OOOOO...........OOOOOOOOOOOOOOOOOOOOOOOOOOOOOOOOOOOOOOOOOOOOOOOOOOOOOOOOO  O",
"  OOOOOO..........OOOOO  OOOOOOOOOOOOOOOOOOOOOOOOOOOOOOOOOOOOOOOOOOOOOOOOOOOOOOOOOOOOOOOOOOOOOOOOOOOOO  OOOO...........OOOOOOOOOOOOOOOOOOOOOOOOOOOOOOOOOOOOOOOOOOOOOOOOOOOOOOOOOO  O",
"  OOOOO..........OOOOOO  OOOOOOOOOOOOOOOOOOOOOOOOOOOOOOOOOOOOOOOOOOOOOOOOOOOOOOOOOOOOOOOOOOOOOOOOOOOOO  OOOO...........OOOOOOOOOOOOOOOOOOOOOOOOOOOOOOOOOOOOOOOOOOOOOOOOOOOOOOOOOO  O",
"  OOOOO..........OOOOOO  OOOOOOOOOOOOOOOOOOOOOOOOOOOOOOOOOOOOOOOOOOOOOOOOOOOOOOOOOOOOOOOOOOOOOOOOOOOOO  OOOO...........OOOOOOOOOOOOOOOOOOOOOOOOOOOOOOOOOOOOOOOOOOOOOOOOOOOOOOOOOO  O",
"  OOOOOOOOOOOOOOOOOOOO  OOOOOOOOOOOOOOOOOOOOOOOOOOOOOOOOOOOOOOOOOOOOOOOOOOOOOOOOOOOOOOOOOOOOOOOOOOOOOO  OOOOOOOOOOOOOOOOOOOOOOOOOOOOOOOOOOOOOOOOOOOOOOOOOOOOOOOOOOOOOOOOOOOOOOOOO  O",
"  OOOOOOOOOOOOOOOOOOOO  OOOOOOOOOOOOOOOOOOOOOOOOOOOOOOOOOOOOOOOOOOOOOOOOOOOOOOOOOOOOOOOOOOOOOOOOOOOOOO  OOOOOOOOOOOOOOOOOOOOOOOOOOOOOOOOOOOOOOOOOOOOOOXXXXXOXXXXOOXXXXOXXXXoOOOOO  O",
"   OOOOOOOOOOOOOOOOOO  OOOOOOOOOOOOOOOOOOOOOOOOOOOOOOOOOOOOOOOOOOOOOOOOOOOOOOOOOOOOOOOOOOOOOOOOOOOOOOO  OOOOOOOOOOOOOOOOOOOOOXXOOOOOOOOOOOOOOOOOOOOOOOXXXXXOXXoXoOXooXOoooXXOOOOO  O",
"O   OOOOOOOOOOOOOOOO   OOOOOOOOOOOOOOOOOOOOOOOOOOOOOOOOOOOOOOOOOOOOOOOOOOOOOOOOOOOOOOOOOOOOOOOOOOOOOOO   OOOOOOOOOOOOOOOOOOOOXXOOOOOOOOOOOOOOOOOOOOOOOOOXXXOXOOooOXOOXOOOOXXOOOOO  O",
"OO   OOOOOOOOOOOOOO   OOOOOOOOOOOOOOOOOOOOOOOOOOOOOOOOOOOOOOOOOOOOOOOOOOOOOOOOOOOOOOOOOOOOOOOOOOOOOOOOO   OOOOOOOOOOOOOXXXXXOXXOXXXXXOXXXXXXXXXXOOOOOOOOOXXOXOOooOoOOXOOooXXOOOOO  O",
"OOO                  OOOOOOOOOOOOOOOOOOOOOOOOOOOOOOOOOOOOOOOOOOOOOOOOOOOOOOOOOOOOOOOOOOOOOOOOOOOOOOOOOOO          OOOOOXXXXXOXXOXXXXXOXXXXXXXOXXOOOOOOooXXXOXoOooOoOOXOXXXXXOOOOO  O",
"OOOO                OOOOOOOOOOOOOOOOOOOOOOOOOOOOOOOOOOOOOOOOOOOOOOOOOOOOOOOOOOOOOOOOOOOOOOOOOOOOOOOOOOOOOO        OOOOOXXXXXOXXOXXOXXOXXOOOXXOXXOOOOOoXooooOXoOooOoOOXOOOOXXOOOOO  O",
"OOOOOOOOOOOOOOOOOOOOOOOOOOOOOOOOOOOOOOOOOOOOOOOOOOOOOOOOOOOOOOOOOOOOOOOOOOOOOOOOOOOOOOOOOOOOOOOOOOOOOOOOOOOOOOOO  OOOOOXXXXXOXXOXXOXXOXXOOOXXXXXOOOOOoXoOOOOXOOooOoOOXOOOOXXOOOOO  O",
"OOOOOOOOOOOOOOOOOOOOOOOOOOOOOOOOOOOOOOOOOOOOOOOOOOOOOOOOOOOOOOOOOOOOOOOOOOOOOOOOOOOOOOOOOOOOOOOOOOOOOOOOOOOOOOOO  OOOOOOOXXXOXXOXXOXXOXXXXOXXXXXOOOOOoXXOOOOXoOXoOXooXOOXXXXOOOOO  O",
"OOOOOOOOOOOOOOOOOOOOOOOOOOOOOOOOOOOOOOOOOOOOOOOOOOOOOOOOOOOOOOOOOOOOOOOOOOOOOOOOOOOOOOOOOOOOOOOOOOOOOOOOOOOOOOOO  OOOOOXXXXXOXXOXXOXXOXXXXXXXXXXOOOOOOXXXXXOXXXXoOXXXXOXXXXXOOOOO  O",
"OOOOOOOOOOOOOOOOOOOOOOOOOOOOOOOOOOOOOOOOOOOOOOOOOOOOOOOOOOOOOOOOOOOOOOOOOOOOOOOOOOOOOOOOOOOOOOOOOOOOOOOOOOOOOOOO  OOOOOOXXXXOXXOXOOXXOXXXXOOXXXXOOOOOOoXXXoOOoooOOOooOOOOOOOOOOOO  O",
"OOOOOOOOOOOOOOOOOOOOOOOOOOOOOOOOOOOOOOOOOOOOOOOOOOOOOOOOOOOOOOOOOOOOOOOOOOOOOOOOOOOOOOOOOOOOOOOOOOOOOOOOOOOOOOOO  OOOOOOOOOOOOOOOOOOOOOOOOOOOOOOOOOOOOOOOOOOOOOOOOOOOOOOOOOOOOOOO  O",
"OOOOOOOOOOOOOOOOOOOOOOOOOOOOOOOOOOOOOOOOOOOOOOOOOOOOOOOOOOOOOOOOOOOOOOOOOOOOOOOOOOOOOOOOOOOOOOOOOOOOOOOOOOOOOOOO  OOOOOOOOOOOOOOOOOOOOOOOOOOOOOOOOOOOOOOOOOOOOOOOOOOOOOOOOOOOOOOO  O",
"OOOOOOOOOOOOOOOOOOOOOOOOOOOOOOOOOOOOOOOOOOOOOOOOOOOOOOOOOOOOOOOOOOOOOOOOOOOOOOOOOOOOOOOOOOOOOOOOOOOOOOOOOOOOOOOO  OOOOOOOOOOOOOOOOOOOOOOOOOOOOOOOOOOOOOOOOOOOOOOOOOOOOOOOOOOOOOOO  O",
"OOOOOOOOOOOOOOOOOOOOOOOOOOOOOOOOOOOOOOOOOOOOOOOOOOOOOOOOOOOOOOOOOOOOOOOOOOOOOOOOOOOOOOOOOOOOOOOOOOOOOOOOOOOOOOOO  OOOOOOOOOOOOOOOOOOOOOOOOOOOOOOOOOOOOOOOOOOOOOOOOOOOOOOOOOOOOOO   O",
"OOOOOOOOOOOOOOOOOOOOOOOOOOOOOOOOOOOOOOOOOOOOOOOOOOOOOOOOOOOOOOOOOOOOOOOOOOOOOOOOOOOOOOOOOOOOOOOOOOOOOOOOOOOOOOOOO  OOOOOOOOOOOOOOOOOOOOOOOOOOOOOOOOOOOOOOOOOOOOOOOOOOOOOOOOOOOO   OO",
"OOOOOOOOOOOOOOOOOOOOOOOOOOOOOOOOOOOOOOOOOOOOOOOOOOOOOOOOOOOOOOOOOOOOOOOOOOOOOOOOOOOOOOOOOOOOOOOOOOOOOOOOOOOOOOOOOO   OOOOOOOOOOOOOOOOOOOOOOOOOOOOOOOOOOOOOOOOOOOOOOOOOOOOOOOOO   OOO",
"OOOOOOOOOOOOOOOOOOOOOOOOOOOOOOOOOOOOOOOOOOOOOOOOOOOOOOOOOOOOOOOOOOOOOOOOOOOOOOOOOOOOOOOOOOOOOOOOOOOOOOOOOOOOOOOOOOO                                                             OOOO",
"OOOOOOOOOOOOOOOOOOOOOOOOOOOOOOOOOOOOOOOOOOOOOOOOOOOOOOOOOOOOOOOOOOOOOOOOOOOOOOOOOOOOOOOOOOOOOOOOOOOOOOOOOOOOOOOOOOOO                                                           OOOOO"
};
