<?xml version="1.0" encoding="UTF-8" standalone="no"?>
<!-- Created with Inkscape (http://www.inkscape.org/) -->

<svg
   xmlns:dc="http://purl.org/dc/elements/1.1/"
   xmlns:cc="http://creativecommons.org/ns#"
   xmlns:rdf="http://www.w3.org/1999/02/22-rdf-syntax-ns#"
   xmlns:svg="http://www.w3.org/2000/svg"
   xmlns="http://www.w3.org/2000/svg"
   xmlns:sodipodi="http://sodipodi.sourceforge.net/DTD/sodipodi-0.dtd"
   xmlns:inkscape="http://www.inkscape.org/namespaces/inkscape"
   width="210mm"
   height="297mm"
   viewBox="0 0 210 297"
   version="1.1"
   id="svg8"
   inkscape:version="0.92.5 (2060ec1f9f, 2020-04-08)"
   sodipodi:docname="dracula-bat.svg">
  <defs
     id="defs2" />
  <sodipodi:namedview
     id="base"
     pagecolor="#ffffff"
     bordercolor="#666666"
     borderopacity="1.0"
     inkscape:pageopacity="0.0"
     inkscape:pageshadow="2"
     inkscape:zoom="1.979899"
     inkscape:cx="297.54969"
     inkscape:cy="572.92356"
     inkscape:document-units="mm"
     inkscape:current-layer="layer1"
     showgrid="false"
     inkscape:window-width="2560"
     inkscape:window-height="1003"
     inkscape:window-x="0"
     inkscape:window-y="41"
     inkscape:window-maximized="1" />
  <metadata
     id="metadata5">
    <rdf:RDF>
      <cc:Work
         rdf:about="">
        <dc:format>image/svg+xml</dc:format>
        <dc:type
           rdf:resource="http://purl.org/dc/dcmitype/StillImage" />
        <dc:title></dc:title>
      </cc:Work>
    </rdf:RDF>
  </metadata>
  <g
     inkscape:label="Camada 1"
     inkscape:groupmode="layer"
     id="layer1"
     style="opacity:0.99">
    <ellipse
       style="opacity:1;vector-effect:none;fill:none;fill-opacity:1;fill-rule:nonzero;stroke:none;stroke-width:0.34400001;stroke-linecap:butt;stroke-linejoin:round;stroke-miterlimit:3.70000005;stroke-dasharray:none;stroke-dashoffset:0;stroke-opacity:1;paint-order:normal"
       id="path873"
       cx="105.98483"
       cy="145.22363"
       rx="1.2040194"
       ry="1.1049175" />
    <ellipse
       style="opacity:1;vector-effect:none;fill:none;fill-opacity:1;fill-rule:nonzero;stroke:none;stroke-width:0.34400001;stroke-linecap:butt;stroke-linejoin:round;stroke-miterlimit:3.70000005;stroke-dasharray:none;stroke-dashoffset:0;stroke-opacity:1;paint-order:normal"
       id="path873-4"
       cx="112.87314"
       cy="145.22363"
       rx="1.2040195"
       ry="1.1049175" />
    <path
       id="path842-9-6"
       style="opacity:0.98999999;fill:none;fill-opacity:1;stroke:#000000;stroke-width:0.26458332px;stroke-linecap:butt;stroke-linejoin:miter;stroke-opacity:1"
       d="m 30.616072,156.39285 c 0,0 13.32366,-20.69419 55.373514,-29.48214 0,0 6.8075,15.25432 17.390834,20.92396 m 2.82957,-5.55246 c 0,0 2.78889,-1.24464 6.42825,0 m 1.97487,-8.71752 c 0,0 -2.1085,6.3121 -1.97487,8.71752 m 2.82957,5.55246 c 0,0 3.42161,-4.51468 -0.8547,-14.26998 m 73.61904,22.82816 c 0,0 -13.32366,-20.69419 -55.37351,-29.48214 0,0 -6.8075,15.25432 -17.39083,20.92396 m -11.23269,-14.26998 c 0,0 2.1085,6.3121 1.97487,8.71752 m -2.82957,5.55246 c 0,0 -3.421614,-4.51468 0.8547,-14.26998 m 28.8125,28.21433 c 0,0 -21.96618,-2.07888 -23.62351,15.40253 m 48.00298,-19.46578 c 0,0 -21.07217,-8.22098 -24.37947,4.06325 m 55.18453,-5.38617 c 0,0 -28.82069,-15.40253 -30.80506,1.32292 m -71.626497,4.06325 c 0,0 21.966187,-2.07888 23.623517,15.40253 M 61.421128,157.71577 c 0,0 21.072173,-8.22098 24.379465,4.06325 m -55.184521,-5.38617 c 0,0 28.820683,-15.40253 30.805057,1.32292" />
    <path
       style="opacity:1;vector-effect:none;fill:#000000;fill-opacity:1;fill-rule:nonzero;stroke:#000000;stroke-width:0.92976379;stroke-linecap:butt;stroke-linejoin:round;stroke-miterlimit:3.70000005;stroke-dasharray:none;stroke-dashoffset:0;stroke-opacity:0.99215686;paint-order:normal"
       d="m 412.00733,657.08436 c -7.49672,-26.57607 -30.76534,-42.54714 -67.16877,-46.10318 -4.06842,-0.39742 -10.18439,-0.72258 -13.59106,-0.72258 l -6.96179,1.18967 -1.30309,-5.94339 c -3.84861,-8.83422 -12.11719,-15.39265 -23.41243,-18.57014 -6.11495,-1.72021 -22.37601,-2.05306 -31.97738,-0.65454 -9.26379,1.34934 -20.40033,3.93752 -28.99235,6.73794 l -6.45761,3.07297 -0.16011,-5.11558 c -0.1975,-6.31022 -9.01162,-18.7221 -20.51844,-22.9947 -3.70423,-1.37543 -5.69021,-1.57475 -16.01435,-1.60736 -9.75053,-0.0308 -13.1425,0.25191 -19.64286,1.63712 -14.67762,3.12776 -33.92967,9.74646 -49.93442,17.16706 -3.49964,1.6226 -10.03069,6.02357 -10.14835,5.90591 -0.5666,-0.5666 16.27595,-18.50634 23.51637,-25.06049 39.44667,-35.70779 95.53523,-63.51121 163.04445,-80.53659 10.73853,-2.70818 21.58947,-5.65002 22.33844,-5.65002 1.0064,0 1.01483,2.95373 3.60848,8.10071 10.72885,21.2909 27.97779,44.62242 42.43574,57.40006 6.15264,5.43756 18.49229,14.20708 19.99091,14.20708 0.72833,0 0.36794,-0.23401 -1.97435,-6.65178 -2.1876,-5.9939 -2.81415,-17.27607 -1.21186,-25.84822 1.58171,-8.46205 5.72797,-23.58919 6.48701,-22.23288 1.27423,2.19144 7.02226,25.99076 6.73666,28.68163 0.18847,1.46036 -0.0224,2.96297 -0.029,4.75232 l 3.28426,-0.60054 c 3.1611,-1.69339 14.04241,-1.82856 20.06998,-0.0896 l 2.5,0.2034 0.2603,-4.68354 c 0.25365,-2.56366 1.25265,-8.61404 2.5146,-13.31823 1.26196,-4.70419 2.89991,-9.15002 3.09974,-10.03395 0.19983,-0.88393 0.512,-4.98484 0.80944,-4.98484 0.90128,0 5.17707,16.27167 6.34734,22.98247 1.90386,10.91755 1.0206,21.55345 -2.39484,28.24826 -0.8333,1.6334 -1.40578,2.96373 -1.02794,3.19725 1.61619,0.99886 16.25838,-9.6352 24.67707,-17.92202 13.57368,-13.36105 26.63184,-31.58157 38.20359,-53.30683 2.60607,-4.89275 2.48832,-8.08036 3.4,-8.08036 2.41353,0 39.02994,10.24621 50.89642,13.97032 55.26291,17.3434 105.78416,44.7226 136.07713,73.81102 8.89571,8.54198 21.40673,21.64735 22.04435,23.4529 0.13291,0.3764 -6.22904,-4.11563 -9.30838,-5.53556 -16.47548,-7.59707 -35.35075,-14.19614 -48.92952,-17.10649 -10.68713,-2.29057 -24.32569,-3.06165 -31.81121,-1.79851 -13.80205,2.32902 -23.43456,11.18769 -26.12805,24.029 -0.44587,2.12565 0.18141,5.4274 -0.18793,5.4274 -0.36933,0 -4.89189,-2.49621 -8.46823,-3.63733 -8.11816,-2.59028 -20.93123,-5.45046 -29.35959,-6.55378 -8.10401,-1.06084 -24.20445,-0.44685 -29.95504,1.14234 -11.70372,3.23436 -20.6664,10.88616 -24.03766,20.52191 l -0.38585,3.8682 -6.76069,-1.18963 c -1.24085,-0.21834 -19.23729,1.11434 -26.71791,2.59348 -29.0955,5.75302 -48.60398,21.85542 -54.47178,44.96129 l -1.33533,11.84915 z m -7.32351,-105.13638 c 1.94412,-2.47154 1.86905,-4.22283 -0.27283,-6.36471 -3.44242,-3.44242 -8.98246,-1.50331 -9.11592,3.19074 -0.13683,4.81251 6.36967,7.01211 9.38875,3.17397 z m 25.76613,0.45347 c 3.14802,-3.14801 0.8044,-8.57142 -3.70396,-8.57142 -2.80378,0 -5.58175,2.43862 -5.58175,4.8999 0,4.35527 6.16454,6.7927 9.28571,3.67152 z"
       id="path942"
       inkscape:connector-curvature="0"
       transform="scale(0.26458333)"
       sodipodi:nodetypes="cssccssscscsscssssscscsccccccccsssscssssscccscsccsscssccccssccssc" />
  </g>
</svg>
